<svg xmlns="http://www.w3.org/2000/svg" xmlns:xlink="http://www.w3.org/1999/xlink" id="Capa_1" x="0" y="0" version="1.1" viewBox="0 0 469.333 469.333" xml:space="preserve" style="enable-background:new 0 0 469.333 469.333"><path d="M425.387,213.333C415.573,124.373,344.96,53.76,256,43.947V0h-42.667v43.947C124.373,53.76,53.76,124.373,43.947,213.333H0	V256h43.947c9.813,88.96,80.427,159.573,169.387,169.387v43.947H256v-43.947C344.96,415.573,415.573,344.96,425.387,256h43.947	v-42.667H425.387z M234.667,384c-82.453,0-149.333-66.88-149.333-149.333s66.88-149.333,149.333-149.333S384,152.213,384,234.667	S317.12,384,234.667,384z"/></svg>